<?xml version="1.0" encoding="utf-8"?>
<!-- Generator: Adobe Illustrator 25.3.1, SVG Export Plug-In . SVG Version: 6.00 Build 0)  -->
<svg version="1.1" id="Layer_1" xmlns="http://www.w3.org/2000/svg" xmlns:xlink="http://www.w3.org/1999/xlink" x="0px" y="0px"
	 viewBox="0 0 685.13 354.73" style="enable-background:new 0 0 685.13 354.73;" xml:space="preserve">
<style type="text/css">
	.st0{fill:#FFFFFF;}
</style>
<path class="st0" d="M148.71,285.23c-14.69-7.88-12.54-28.31-1.43-48.02c11.11-20.07,26.16-32.61,41.57-24.37
	c15.41,8.6,12.18,29.02,1.43,48.73C179.52,281.29,163.76,293.47,148.71,285.23z M131.87,258l78.83-46.22
	c17.92-10.39,31.89-11.11,36.91,0c5.37,11.82,0.36,24.72-9.32,37.98l-51.24,69.52c-18.27,25.08-8.6,31.53,3.58,34.4
	c16.84,3.58,39.06-16.48,49.09-26.16c-7.88,13.97-7.88,24.01,8.24,26.87c22.22,3.94,63.07-26.52,63.07-72.74V253.7
	c0-30.82-13.26-31.89-42.28-6.09h1.79c27.59-20.07,31.89-9.67,31.89,9.67v31.17c0,48.73-32.25,63.42-49.81,59.48
	c-25.44-5.38,25.8-46.94,12.54-60.92c-6.45-6.45-19.35,1.43-33.32,10.75v1.08c15.41-8.24,22.22-11.47,25.8-6.81
	c5.37,6.81-31.89,61.27-60.2,53.39c-12.54-3.58-15.41-14.69-1.79-33.32l50.17-68.44c10.75-14.69,16.48-26.52,11.82-36.55
	c-6.45-13.97-27.23-11.11-43-0.36c-9.32,6.09-68.8,40.85-82.77,48.73V258z M393.09,67.37c0,26.52,0.72,36.91,9.67,44.43v-1.43
	c-7.52-8.6-7.88-22.93-7.88-42.64V45.51c0-7.88,2.51-3.94,6.45,3.22l43,74.17l3.58,2.51V56.26c0-9.67-0.72-18.27-8.6-24.01v1.79
	c6.09,5.73,6.81,10.39,6.81,27.23v49.45l0.72-2.87l-39.77-68.08c-10.39-17.92-17.92-25.44-26.87-25.44v1.79
	c11.11,0,12.9,11.11,12.9,15.41V67.37z M26.52,294.55c0,26.87,1.79,43.36,13.97,48.73v-1.43c-11.11-6.45-11.11-28.67-11.11-46.58
	v-60.2c0-18.27,5.37-12.18,11.11-2.15l70.23,120.76h3.22V241.52c0-20.42,0-31.53-13.26-37.62v1.43c9.32,5.02,10.39,16.12,10.39,34.4
	v100.69l1.79-4.66L50.88,228.97C31.53,196.01,16.48,188.84,0,188.84v1.43c21.86,0,26.52,21.5,26.52,41.57V294.55z M113.59,38.34
	c-1.43-5.37,3.58-8.96,11.11-10.39l61.63-12.9c10.75-2.15,16.12-0.36,16.84,6.81c1.07,9.32-36.19,24.72-56.26,43.36
	c-20.07,18.99-24.37,40.49-12.9,60.56c14.69,25.44,56.62,31.17,99.97,11.82l-5.37,3.94c-47.66,24.37-92.45,17.2-106.07-11.47
	c-12.9-27.23,2.87-48.73,23.65-67.01c21.14-18.27,45.87-27.95,44.79-37.62c-0.72-7.88-10.75-6.81-19.35-5.02l-35.12,7.17
	c-6.09,1.07-11.11,3.94-9.67,8.96c1.43,5.37,7.88,6.45,18.27,7.52v0.72C134.37,44.79,115.74,44.79,113.59,38.34z M670.44,157.31
	c-29.38,12.18-43-4.3-67.72-9.67c-20.07-3.94-35.83,0-58.05,15.05v-1.79c17.2-13.26,18.27-15.05,18.27-35.12V32.97
	c0-12.9-6.09-14.33-21.14-5.73v-1.79L583.36,0v2.15c-11.11,8.6-12.54,13.26-12.54,29.74v84.92c0,29.02,16.12,24.01,35.12,29.02
	c27.59,7.17,45.15,13.62,79.19-5.73L670.44,157.31z M147.27,287.74c16.84,9.32,40.49,0,51.96-21.14
	c11.82-21.14,7.52-46.22-9.32-55.54c-17.2-9.32-40.49,0.36-52.32,21.5C126.13,253.7,130.07,278.42,147.27,287.74z M473.71,64.5
	l6.45-3.22c-2.87-4.66,4.66-16.12,14.69-20.42c14.33-6.45,26.52-7.88,26.52,12.9v39.06c-14.69,14.33-34.76,31.17-43,12.18
	c-5.73-12.54,7.52-25.44,19.71-33.32l25.44-16.48v-2.15l-32.25,21.14c-11.82,7.88-28.67,21.14-22.57,35.47
	c9.32,21.5,39.42,0,52.67-15.41c0,30.46,18.27,25.08,33.32,10.03l-5.02,2.51c-11.11,7.88-20.07,8.6-20.07-10.75V55.18
	c0-30.46-27.59-21.14-36.91-16.48C473.36,49.45,468.7,61.27,473.71,64.5z M184.18,94.96l56.97-32.25
	c26.16-14.69,1.07-32.25-33.68-11.47c-22.93,13.62-30.1,44.43-21.5,59.84c15.41,27.59,55.18,4.3,80.27-19.35l0.36-2.15
	c-35.83,32.97-60.92,31.53-70.59,15.05c-6.81-10.39-8.6-35.12,12.54-50.88c23.65-17.92,47.66-1.43,27.95,9.67l-51.6,29.38
	L184.18,94.96z M20.42,69.87c0-20.42-1.43-21.5-20.42-10.75v-1.79l75.25-43c13.62-7.88,27.59-9.67,30.1,0
	c2.51,10.39-15.77,22.22-27.95,31.53v-1.43c9.67-8.6,20.07-18.27,16.48-27.23c-3.58-9.32-20.42,0.36-27.95,4.66L43.36,35.12
	C32.25,41.57,30.1,46.22,30.1,65.93v18.99l40.49-20.78l-4.3,4.3L30.1,87.07v34.04c0,21.14,0.72,27.95,12.54,26.16
	c36.91-5.73,44.07,17.92,58.41-0.72c10.03-13.62-2.87-29.74-6.81-34.04h2.51c3.22,3.58,21.14,25.8,11.47,38.7
	c-13.62,17.56-23.65,1.79-43.36-1.79c-11.47-2.51-29.02,0-41.21,5.37L0,165.19v-1.07c15.41-9.67,20.42-15.41,20.42-35.47V69.87z
	 M263.02,42.64c17.56-10.39,23.29-6.09,23.29,7.88v74.89c0,16.84,0,29.02-17.2,38.7v1.79l45.51-26.16v-2.15
	c-19.71,11.82-19.71,6.09-19.71-17.92V51.96c0-18.27,1.07-26.52,10.39-31.89l13.62-7.88c16.48-9.67,25.8-7.52,28.31,2.87
	c3.22,14.33-17.2,32.25-34.76,45.15c-22.57,17.2,32.25-6.81,50.88,16.12c21.14,25.8-9.67,65.57,24.72,81.34
	c18.99,8.96,48.02,5.37,65.93-6.45l12.18-13.97c-15.41,9.67-53.39,22.93-75.25,12.18c-31.53-15.41-2.87-55.54-25.08-81.7
	c-16.84-20.42-56.62-2.51-45.87-11.11c17.2-13.62,40.49-32.61,37.27-45.51c-2.51-10.03-15.41-13.97-36.55-2.15l-57.69,31.89V42.64z"
	/>
</svg>
