<?xml version="1.0" encoding="utf-8"?>
<!-- Generator: Adobe Illustrator 25.3.1, SVG Export Plug-In . SVG Version: 6.00 Build 0)  -->
<svg version="1.1" id="Layer_1" xmlns="http://www.w3.org/2000/svg" xmlns:xlink="http://www.w3.org/1999/xlink" x="0px" y="0px"
	 viewBox="0 0 1089.44 183.19" style="enable-background:new 0 0 1089.44 183.19;" xml:space="preserve">
<style type="text/css">
	.st0{fill:#FFFFFF;}
</style>
<path class="st0" d="M911.98,105.59c-16.09-8.82-13.67-31.08-1.54-52.69c12.34-21.82,28.66-35.71,45.63-26.45
	c16.75,9.26,13.23,31.52,1.54,52.91C945.71,100.96,928.3,114.41,911.98,105.59z M893.69,75.61l86.19-50.26
	c19.4-11.46,34.61-12.34,40.12-0.44c5.95,13.01,0.66,27.34-9.92,41.88l-55.99,76.05c-20.06,27.11-9.7,34.39,3.75,37.26
	c18.74,3.97,42.77-17.86,53.79-28.44c-8.6,15.21-8.6,26.23,9.04,29.32c24.03,4.41,68.78-28.88,68.78-79.58V70.76
	c0-33.51-14.55-34.61-46.29-6.39h2.2c30.2-22.04,34.83-10.8,34.83,10.58v33.95c0,53.35-35.49,69.44-54.45,65.25
	c-27.78-5.95,28.44-51.58,13.89-66.8c-7.05-7.05-21.38,1.54-36.59,11.9v1.32c16.75-9.48,24.03-12.79,28-7.5
	c5.95,7.5-34.83,66.57-65.69,57.98c-13.67-3.75-16.75-15.87-1.76-36.15l54.67-74.73c11.68-16.09,17.86-29.1,12.79-40.12
	c-6.83-15.21-29.76-12.34-46.95-0.44c-10.14,6.83-75.17,44.75-90.38,53.57V75.61z M429.65,75.61c0,29.1,0.66,40.12,10.36,48.28
	v-1.32c-8.16-9.26-8.6-25.13-8.6-46.73V51.58c0-8.6,2.87-3.97,7.27,3.75l46.95,80.9l3.97,2.42V63.49c0-10.58-0.88-20.28-9.48-26.45
	v1.76c6.61,6.61,7.5,11.68,7.5,29.98v54.01l0.66-3.09l-43.43-74.29c-11.46-19.62-19.4-27.78-29.54-27.78v1.98
	c12.34,0,14.33,12.12,14.33,16.75V75.61z M778.61,115.51c0,29.54,1.76,47.4,15.21,53.35v-1.54c-12.12-7.05-12.12-31.3-12.12-50.92
	V50.48c0-19.84,5.73-13.23,12.12-2.2l76.72,131.83h3.53V57.76c0-22.27,0-34.61-14.55-41.44v1.98c10.36,5.29,11.46,17.42,11.46,37.48
	v109.78l1.98-4.85L805.29,44.09C784.13,7.72,767.59,0,760.54,0v1.54c13.01,0,18.08,23.37,18.08,45.63V115.51z M124.11,43.65
	c-1.54-5.73,3.97-9.26,12.12-11.02l67.24-14.11c11.9-2.42,17.64-0.66,18.3,7.27c1.54,10.14-39.46,27.11-61.06,47.4
	c-22.04,20.72-26.89,44.53-14.11,66.13c16.09,27.78,61.72,33.95,109.12,13.01l-5.95,4.41c-52.03,26.45-101.18,18.74-115.95-12.57
	c-14.11-29.98,3.31-53.57,25.79-73.19c23.15-20.06,50.48-30.64,49.16-41.44c-0.88-8.6-11.68-7.27-21.38-5.29l-38.14,7.94
	c-6.83,1.32-12.12,4.19-10.58,9.7c1.32,5.73,8.6,7.05,19.84,8.16v0.88C146.82,50.92,126.32,50.92,124.11,43.65z M732.76,173.93
	c-31.96,13.45-46.95-5.07-73.85-10.8c-22.04-4.19-39.46,0-63.71,16.75v-2.42c18.74-14.33,20.06-16.09,20.06-38.14V37.92
	c0-13.89-6.83-15.87-23.15-6.17v-2.2l45.41-27.56v2.2c-12.12,9.26-13.67,14.55-13.67,32.63v92.59c0,31.96,17.64,26.23,38.58,31.96
	c29.98,7.5,49.16,14.77,86.41-6.39L732.76,173.93z M910.44,108.02c18.52,10.14,44.53,0.22,57.1-22.93
	c12.57-23.15,7.72-50.48-10.58-60.62c-18.52-10.36-44.09,0-56.88,23.37C887.29,70.76,891.7,97.88,910.44,108.02z M517.61,72.31
	l7.05-3.53c-3.09-5.07,5.29-17.64,16.09-22.27c15.65-7.05,29.1-8.6,29.1,13.89v42.99c-16.09,15.65-38.14,33.95-47.18,13.01
	c-6.17-13.45,8.38-27.56,21.6-36.15l27.78-18.08v-2.42l-35.05,23.37c-13.01,8.6-31.52,22.93-24.69,38.8
	c10.14,23.37,42.99,0,57.54-16.97c0,33.07,20.06,27.34,36.59,10.8l-5.73,2.87c-11.9,8.6-22.04,9.48-22.04-11.9V62.17
	c0-33.29-30.2-23.37-40.12-17.86C517.17,55.99,512.32,68.78,517.61,72.31z M201.49,105.59l62.17-35.05
	c28.66-16.09,1.1-35.49-36.81-12.57c-25.13,14.77-32.85,48.5-23.59,65.25c16.75,30.2,60.4,4.85,87.52-20.94l0.66-2.65
	c-39.46,36.15-66.57,34.61-76.94,16.53c-7.5-11.24-9.92-38.58,13.45-55.77c26.01-19.18,52.03-1.32,30.42,11.02l-56.21,31.96
	L201.49,105.59z M22.27,78.26c0-22.27-1.32-23.37-22.27-11.68v-1.98l82.23-46.95c14.99-8.6,29.98-10.8,33.07,0
	c2.42,11.24-17.19,24.25-30.64,34.17v-1.32c10.36-9.26,22.04-20.28,17.86-29.76c-3.75-10.14-22.27,0.22-30.42,5.07L47.4,40.34
	c-12.12,7.05-14.55,11.9-14.55,33.51v20.94l44.31-22.71l-4.63,4.41L32.85,97v37.26c0,23.15,0.88,30.42,13.89,28.44
	c40.12-5.95,48.06,19.84,63.71-0.66c11.02-14.99-3.09-32.63-7.5-37.03h3.09c3.09,3.75,22.93,28,12.12,42.11
	c-14.77,18.96-25.79,1.76-47.4-1.76c-12.12-2.87-31.52-0.22-44.97,5.73L0,182.53v-1.32c16.75-10.58,22.27-16.75,22.27-38.8V78.26z
	 M287.46,48.72c19.18-11.68,25.57-6.83,25.57,8.6v81.34c0,18.74,0,31.96-18.96,42.55v1.98l49.82-28.66v-2.2
	c-21.6,13.01-21.6,6.61-21.6-19.84V58.64c0-20.06,1.32-28.88,11.24-34.61l15.21-8.82c17.86-10.36,27.78-8.38,30.86,3.31
	c3.31,15.43-18.96,35.05-38.14,49.16c-24.69,18.74,35.05-7.5,55.55,17.42c23.15,28.44-10.36,72.09,26.89,89.28
	c20.94,9.7,52.69,5.73,72.31-7.27l13.23-15.43c-16.97,10.8-58.2,25.13-82.23,13.67c-34.61-16.75-3.31-60.62-27.34-89.5
	c-18.52-22.27-62.17-2.65-50.26-12.12c18.74-14.77,44.31-35.49,41-49.6c-2.87-11.02-16.97-15.21-40.12-2.42l-63.05,34.83V48.72z"/>
</svg>
