<svg width="11" height="13" viewBox="0 0 11 13" fill="none" xmlns="http://www.w3.org/2000/svg">
<path d="M5.48882 12.9355C5.29121 12.1834 5.00755 11.479 4.63783 10.8224C4.27448 10.1595 3.56691 9.13316 2.51512 7.74351C1.7438 6.72359 1.2689 6.07658 1.09042 5.80248C0.79719 5.35626 0.583645 4.9483 0.44978 4.57857C0.32229 4.20248 0.258545 3.8232 0.258545 3.44073C0.258545 2.73316 0.494402 2.14033 0.966115 1.66224C1.43783 1.18415 2.02109 0.945109 2.71592 0.945109C3.41711 0.945109 4.02588 1.19371 4.54221 1.69093C4.93105 2.06065 5.24659 2.61204 5.48882 3.34511C5.69918 2.62479 5.9956 2.07658 6.37807 1.70049C6.90715 1.19053 7.5191 0.935547 8.21392 0.935547C8.90237 0.935547 9.48564 1.17459 9.96372 1.65268C10.4418 2.12439 10.6809 2.68853 10.6809 3.34511C10.6809 3.91881 10.5406 4.51802 10.2601 5.14272C9.97966 5.76104 9.43783 6.57379 8.63464 7.58097C7.58922 8.90049 6.82747 9.98415 6.34938 10.832C5.97329 11.5013 5.68643 12.2025 5.48882 12.9355Z" fill="white"/>
</svg>
