<svg width="13" height="13" viewBox="0 0 13 13" fill="none" xmlns="http://www.w3.org/2000/svg">
<path d="M12.1875 6.97346C12.1875 8.62993 11.6008 10.0448 10.4275 11.2182C9.26044 12.3852 7.84868 12.9687 6.19221 12.9687C4.53574 12.9687 3.12083 12.3852 1.9475 11.2182C0.774167 10.0448 0.1875 8.62993 0.1875 6.97346C0.1875 5.31071 0.774167 3.89581 1.9475 2.72875C3.12083 1.55542 4.53574 0.96875 6.19221 0.96875C7.84868 0.96875 9.26044 1.55542 10.4275 2.72875C11.6008 3.89581 12.1875 5.31071 12.1875 6.97346ZM11.3216 6.97346C11.3216 5.55542 10.8197 4.34757 9.81573 3.34993C8.81809 2.346 7.61024 1.84404 6.19221 1.84404C4.77417 1.84404 3.56319 2.346 2.55926 3.34993C1.56162 4.34757 1.06279 5.55542 1.06279 6.97346C1.06279 8.38522 1.56162 9.59306 2.55926 10.597C3.56319 11.5946 4.77417 12.0935 6.19221 12.0935C7.61024 12.0935 8.81809 11.5946 9.81573 10.597C10.8197 9.59306 11.3216 8.38522 11.3216 6.97346ZM4.64868 5.7311C4.64868 5.93816 4.57338 6.11699 4.42279 6.26757C4.27848 6.41816 4.09966 6.49346 3.88632 6.49346C3.67926 6.49346 3.50044 6.41816 3.34985 6.26757C3.19926 6.11699 3.12397 5.93816 3.12397 5.7311C3.12397 5.51777 3.19926 5.33895 3.34985 5.19463C3.50044 5.04404 3.67926 4.96875 3.88632 4.96875C4.09966 4.96875 4.27848 5.04404 4.42279 5.19463C4.57338 5.33895 4.64868 5.51777 4.64868 5.7311ZM9.25103 5.7311C9.25103 5.93816 9.17573 6.11699 9.02515 6.26757C8.88083 6.41816 8.70201 6.49346 8.48868 6.49346C8.28162 6.49346 8.10279 6.41816 7.95221 6.26757C7.80162 6.11699 7.72632 5.93816 7.72632 5.7311C7.72632 5.51777 7.80162 5.33895 7.95221 5.19463C8.10279 5.04404 8.28162 4.96875 8.48868 4.96875C8.70201 4.96875 8.88083 5.04404 9.02515 5.19463C9.17573 5.33895 9.25103 5.51777 9.25103 5.7311ZM3.42515 8.90287L4.00868 8.56404C4.50436 9.46757 5.23221 9.91934 6.19221 9.91934C7.15221 9.91934 7.87691 9.46757 8.36632 8.56404L8.95926 8.90287C8.64554 9.49895 8.25652 9.95385 7.79221 10.2676C7.33417 10.5813 6.80083 10.7382 6.19221 10.7382C5.5773 10.7382 5.04083 10.5813 4.58279 10.2676C4.12475 9.95385 3.73887 9.49895 3.42515 8.90287Z" fill="white"/>
</svg>
